<svg width="816" height="318" viewBox="0 0 816 318" fill="none" xmlns="http://www.w3.org/2000/svg">
<path fill-rule="evenodd" clip-rule="evenodd" d="M680.031 92.3902H703.912L667.98 217.556C665.722 225.451 662.589 231.854 658.573 236.791C654.556 241.728 649.491 245.314 643.355 247.573C637.23 249.82 629.86 250.95 621.267 250.95H604.361V229.177H623.165C627.531 229.177 631.269 228.653 634.366 227.593C637.463 226.533 640.001 224.705 641.969 222.097C643.937 219.489 645.567 215.996 646.824 211.63L649.002 203.806H633.295L594.615 92.3902H619.765L650.085 183.721H654.579L679.996 92.3902H680.031ZM598.597 154.962H510.69C511.132 160.387 512.262 165.359 514.067 169.865C516.465 175.861 520.191 180.577 525.268 184.023C530.344 187.482 536.818 189.205 544.712 189.205C552.606 189.205 559.08 187.482 564.156 184.023C569.233 180.577 572.33 176.514 573.459 171.868H596.49C594.941 179.622 591.809 186.387 587.082 192.162C582.355 197.937 576.405 202.385 569.221 205.482C562.037 208.579 553.864 210.128 544.712 210.128C534.85 210.128 526.257 208.44 518.934 205.051C511.61 201.675 505.614 197.192 500.968 191.627C496.322 186.061 492.829 179.785 490.512 172.811C488.183 165.837 487.019 158.688 487.019 151.352V147.335C487.019 139.872 488.183 132.641 490.512 125.667C492.841 118.693 496.322 112.417 500.968 106.851C505.614 101.286 511.493 96.8496 518.619 93.5312C525.733 90.2245 534.012 88.5595 543.454 88.5595C555.715 88.5595 565.926 91.2375 574.1 96.5934C582.273 101.949 588.398 108.889 592.485 117.423C596.572 125.958 598.609 135.145 598.609 145.018V154.962H598.597ZM571.55 126.959C569.151 121.394 565.635 117.097 560.978 114.058C556.332 111.031 550.487 109.518 543.443 109.518C536.399 109.518 529.983 111.206 525.058 114.594C520.121 117.982 516.465 122.628 514.067 128.543C512.867 131.512 511.959 134.76 511.365 138.265H574.589C574.018 134.12 573.005 130.348 571.55 126.959ZM482.664 182.941H489.988V206.332H480.976C459.843 206.332 440.97 198.717 425.752 185.188C415.331 193.92 403.769 200.976 391.089 206.332L381.507 186.888C391.928 181.811 401.51 175.617 410.243 168.002C393.907 144.89 384.604 113.034 384.604 76.6716C384.604 26.7798 404.328 0 434.193 0C464.058 0 480.964 24.8004 480.964 66.798C480.964 104.01 467.155 140.372 443.484 167.711C454.476 177.294 467.714 182.929 482.653 182.929L482.664 182.941ZM456.176 66.5302C456.176 39.1916 447.443 23.4032 433.634 23.4032C419.825 23.4032 409.404 40.0299 409.404 74.7039C409.404 103.742 416.169 129.672 427.999 148.837C445.743 125.725 456.176 96.6866 456.176 66.5302ZM339.032 118.18C335.504 121.708 333.746 126.924 333.746 133.829V206.344H309.015V92.3902H328.04V123.001C328.611 117.295 329.764 112.405 331.533 108.342C334.142 102.357 337.902 97.979 342.839 95.2311C347.764 92.4833 353.691 91.1094 360.595 91.1094H379.399V112.883H354.669C347.764 112.883 342.548 114.652 339.032 118.169V118.18ZM262.966 111.415H246.269V92.3902H287.696V206.344H262.966V111.415ZM271 76.5319C265.923 76.5319 262.162 75.1929 259.694 72.5149C257.225 69.837 255.991 66.3789 255.991 62.1523C255.991 57.9258 257.225 54.6423 259.694 51.8945C262.162 49.1467 265.923 47.7728 271 47.7728C276.076 47.7728 280.046 49.1467 282.515 51.8945C284.983 54.6423 286.217 58.0655 286.217 62.1523C286.217 66.2391 284.983 69.837 282.515 72.5149C280.046 75.1929 276.204 76.5319 271 76.5319ZM215.146 137.846C215.146 129.672 212.783 123.222 208.067 118.506C203.34 113.791 197.25 111.427 189.787 111.427C181.753 111.427 175.279 114.105 170.343 119.461C165.406 124.817 162.949 131.861 162.949 140.605V206.355H138.218V51.9993H162.949V112.161C165.837 104.988 170.017 99.3995 175.524 95.4407C181.509 91.1443 189.077 88.9903 198.24 88.9903H199.3C212.678 88.9903 222.796 93.5079 229.631 102.52C236.465 111.544 239.877 124.503 239.877 141.42V206.332H215.146V137.834V137.846ZM94.3579 204.015C85.1247 208.102 74.308 210.151 61.9195 210.151C48.6693 210.151 37.4334 207.997 28.2119 203.701C18.9787 199.404 11.9694 193.478 7.18396 185.945C2.38689 178.411 0 169.842 0 160.259H24.9401C24.9401 164.626 26.1394 168.922 28.5379 173.16C30.9364 177.387 34.802 180.88 40.158 183.628C45.514 186.375 52.7678 187.749 61.9311 187.749C70.2445 187.749 77.1141 186.55 82.5399 184.152C87.9657 181.753 91.9827 178.586 94.5908 174.639C97.1989 170.692 98.5029 166.326 98.5029 161.529C98.5029 155.614 95.9647 150.782 90.8998 147.044C85.8233 143.307 78.2202 141.013 68.0788 140.175L52.6513 138.696C38.4231 137.566 27.0825 133.165 18.6294 125.481C10.1763 117.796 5.94976 107.69 5.94976 95.138C5.94976 85.5555 8.24351 77.2421 12.8194 70.1862C17.3952 63.142 23.8456 57.6114 32.159 53.5944C40.4724 49.5775 50.1247 47.5748 61.1161 47.5748C72.1074 47.5748 82.1789 49.5775 90.4923 53.5944C98.8057 57.6114 105.256 63.2468 109.832 70.5123C114.408 77.7777 116.702 86.4055 116.702 96.4071H91.7614C91.7614 91.9011 90.667 87.628 88.4896 83.6111C86.3007 79.5941 82.959 76.3107 78.453 73.784C73.9471 71.2458 68.172 69.9767 61.1277 69.9767C54.0835 69.9767 48.7625 71.1759 44.3263 73.5745C39.8902 75.973 36.5369 79.0701 34.2897 82.8775C32.0309 86.6849 30.9132 90.7717 30.9132 95.138C30.9132 100.354 32.8809 104.965 36.828 108.982C40.7751 112.999 46.8297 115.363 55.0033 116.061L70.2212 117.33C81.0728 118.18 90.469 120.474 98.4331 124.2C106.397 127.937 112.591 132.909 117.028 139.103C121.464 145.309 123.688 152.773 123.688 161.517C123.688 171.099 121.114 179.564 115.968 186.888C110.822 194.223 103.638 199.928 94.4161 204.015H94.3579Z" fill="white"/>
<path fill-rule="evenodd" clip-rule="evenodd" d="M597.899 274.248C595.733 280.861 588.922 292.807 576.684 292.807C569.78 292.807 564.843 289.058 564.843 283.132V281.653L564.447 281.56C562.084 287.184 556.553 292.819 547.471 292.819C541.254 292.819 536.049 289.92 532.719 284.972C529.063 289.384 523.952 292.819 517.175 292.819C511.121 292.819 506.58 290.164 504.158 285.391C500.455 289.082 495.437 291.434 488.952 291.434C488.16 291.434 487.368 291.434 486.681 291.34C486.285 307.827 478.496 317.701 463.592 317.701C454.708 317.701 448.2 312.566 448.2 310.191C448.2 308.608 451.658 303.869 453.032 303.869C453.521 303.869 453.917 304.067 454.813 304.858C457.084 306.733 460.146 308.514 464.093 308.514C472.383 308.514 477.413 301.901 477.413 290.048V281.164L477.017 281.071C474.851 286.299 469.414 292.819 460.041 292.819C448.596 292.819 441.19 283.539 441.19 270.51C441.19 257.482 449.772 246.618 462.405 246.618C467.831 246.618 472.767 248.691 476.319 251.951L476.714 251.753V249.972C476.714 248.784 477.401 247.794 478.694 247.794H485.004C486.285 247.794 486.984 248.784 486.984 250.065L486.681 281.956C487.671 282.154 488.661 282.247 489.837 282.247C495.751 282.247 499.559 279.627 502.178 275.354V250.065C502.178 248.679 502.865 247.794 504.251 247.794H510.573C512.052 247.794 512.739 248.586 512.739 250.169C512.739 254.71 512.343 268.438 512.343 273.573C512.343 279.697 514.509 283.737 519.446 283.737C523.463 283.737 526.886 280.337 529.319 276.6C528.935 274.69 528.725 272.653 528.725 270.51C528.725 256.888 537.504 246.618 549.846 246.618C556.064 246.618 560.698 249.087 563.865 251.951L564.261 251.753V249.972C564.261 248.586 565.053 247.794 566.24 247.794H572.458C573.739 247.794 574.53 248.586 574.53 250.065C574.53 251.939 573.343 267.146 573.343 274.947C573.343 279.883 575.322 283.737 579.269 283.737C584.893 283.737 589.341 276.437 591.6 270.802C591.797 270.313 591.995 270.115 592.484 270.115C593.276 270.115 598.108 272.385 598.108 273.27C598.108 273.561 598.015 273.957 597.91 274.26L597.899 274.248ZM465.444 255.782C457.549 255.782 451.821 261.999 451.821 270.988C451.821 278.684 456.164 283.726 461.986 283.726C471.358 283.726 476.586 270.79 476.586 260.823C474.421 258.553 470.078 255.782 465.432 255.782H465.444ZM552.99 255.782C545.189 255.782 539.367 261.906 539.367 270.988C539.367 278.684 543.71 283.726 549.532 283.726C559.79 283.726 564.133 269.206 564.133 260.823C561.967 258.553 557.624 255.782 552.979 255.782H552.99ZM507.395 239.492C503.937 239.492 501.468 237.222 501.468 233.473C501.468 230.12 504.03 227.651 507.593 227.651C510.946 227.651 513.519 229.631 513.519 233.38C513.519 236.931 511.249 239.504 507.406 239.504L507.395 239.492ZM413.235 292.807C405.306 292.807 398.925 289.536 395.036 284.087C390.355 289.326 383.416 292.807 374.346 292.807C360.129 292.807 351.35 282.934 351.35 268.03V255.688C351.35 237.618 358.057 222.214 372.564 222.214C381.355 222.214 386.874 228.233 386.874 236.337C386.874 248.283 374.835 258.46 361.212 262.5V267.728C361.212 277.799 366.836 284.319 376.011 284.319C383.381 284.319 388.364 280.547 391.497 276.123C391.054 274.201 390.821 272.152 390.821 269.998C390.821 256.771 400.392 246.595 414.411 246.595C428.429 246.595 436.813 256.375 436.813 269.206C436.813 280.955 429.012 292.807 413.223 292.807H413.235ZM377.699 236.535C377.699 233.182 375.825 230.713 372.366 230.713C364.961 230.713 361.515 242.962 361.212 253.616C368.419 251.054 377.699 244.336 377.699 236.535ZM414.318 255.095C406.423 255.095 401.487 262.209 401.487 269.905C401.487 278.591 406.714 284.424 413.724 284.424C421.525 284.424 426.066 277.613 426.066 269.02C426.066 261.126 421.816 255.095 414.318 255.095ZM321.927 292.807C313.987 292.807 307.594 289.524 303.706 284.052C299.211 288.942 292.237 292.807 281.956 292.807C273.433 292.807 266.412 289.687 262.127 284.215C258.541 288.837 253.313 292.807 246.327 292.807C238.724 292.807 232.308 287.382 232.308 279.383C232.308 273.759 232.902 268.915 232.902 263.489C232.902 258.751 231.121 255.793 226.789 255.793C217.614 255.793 212.375 274.155 212.375 285.705V289.256C212.375 290.84 211.781 291.725 210.209 291.725H204.283C202.699 291.725 202.105 290.933 202.105 289.256V250.356C202.105 248.481 202.792 247.794 202.967 247.794H210.198C211.676 247.794 212.363 248.481 212.363 250.169C212.363 251.753 211.874 257.47 211.676 260.136L212.072 260.229C215.03 253.22 220.653 246.607 230.038 246.607C238.619 246.607 243.661 251.834 243.661 259.833C243.661 262.698 242.974 269.707 242.974 275.634C242.974 280.663 244.848 283.726 248.702 283.726C252.556 283.726 255.863 280.337 258.343 276.367C257.854 274.423 257.598 272.327 257.598 270.103C257.598 257.167 266.68 246.607 279.01 246.607C288.092 246.607 294.402 252.731 294.402 258.855C294.402 260.334 288.674 262.314 286.997 262.314C286.31 262.314 286.008 262.011 285.914 261.429C285.321 258.075 282.957 255.805 279.01 255.805C272.99 255.805 268.251 261.231 268.251 269.334C268.251 279.301 275.354 284.436 284.238 284.436C291.724 284.436 296.894 280.757 300.224 276.169C299.782 274.236 299.537 272.187 299.537 270.021C299.537 256.795 309.108 246.618 323.127 246.618C337.145 246.618 345.529 256.399 345.529 269.23C345.529 280.978 337.727 292.831 321.939 292.831L321.927 292.807ZM323.022 255.095C315.128 255.095 310.191 262.209 310.191 269.905C310.191 278.591 315.419 284.424 322.428 284.424C330.229 284.424 334.77 277.613 334.77 269.02C334.77 261.126 330.52 255.095 323.022 255.095ZM161.645 295.078C142.503 295.078 133.316 280.861 133.316 263.676C133.316 260.614 134.003 254.885 134.702 253.208C134.795 253.01 134.993 252.813 135.389 252.813C135.587 252.813 137.17 252.906 138.847 253.115C137.566 250.74 136.868 247.981 136.868 244.918C136.868 232.285 147.824 222.214 163.217 222.214C181.182 222.214 193.024 236.139 193.024 257.26C193.024 277.101 182.265 295.078 161.633 295.078H161.645ZM162.926 231.4C153.553 231.4 147.731 237.42 147.731 244.627C147.731 251.439 152.563 254.594 158.385 254.594C163.415 254.594 166.57 252.219 168.945 250.251C169.236 250.053 169.434 249.855 169.83 249.855C170.82 249.855 174.173 255.281 174.173 256.177C174.173 256.469 173.975 256.864 173.579 257.26C170.913 260.322 164.998 263.874 157.488 263.781C152.458 263.687 147.719 261.999 144.063 259.135C143.865 260.718 143.772 262.29 143.772 263.583C143.772 276.809 151.073 285.891 161.936 285.891C174.371 285.891 182.172 274.143 182.172 257.458C182.172 240.773 174.08 231.389 162.926 231.389V231.4ZM92.3783 292.633C86.6148 292.633 82.5047 289.501 82.5047 284.564V283.33L82.1787 283.248C80.1993 287.941 75.6002 292.633 68.032 292.633C62.8507 292.633 58.5194 290.223 55.7366 286.113C52.6511 289.769 48.3664 292.633 43.0221 292.633C36.4436 292.633 32.0773 289.256 32.0773 283.993V282.922L31.7513 282.841C29.7719 287.696 25.0098 292.633 17.8491 292.633C8.22002 292.633 1.96753 284.983 1.96753 273.945C1.96753 262.907 8.88369 254.105 19.6538 254.105C24.8351 254.105 29.4459 256.573 32.1588 258.716L32.4033 258.634V237.397C32.4033 235.999 33.067 235.417 34.2197 235.417H39.1565C40.3092 235.417 40.9728 236.162 40.9728 237.315C40.9728 241.844 39.9016 270.161 39.9016 277.974C39.9016 281.921 41.2988 285.053 44.8384 285.053C48.1102 285.053 50.893 282.189 52.8956 279.068C52.5813 277.485 52.4066 275.808 52.4066 274.027C52.4066 262.674 59.7303 254.105 70.0114 254.105C75.1927 254.105 79.0583 256.166 81.7013 258.553L82.0274 258.39V256.911C82.0274 255.758 82.691 255.095 83.6691 255.095H88.8504C89.9216 255.095 90.5736 255.758 90.5736 256.992C90.5736 258.553 89.5839 271.232 89.5839 277.741C89.5839 281.851 91.2256 285.065 94.5207 285.065C99.213 285.065 102.916 278.975 104.802 274.283C104.965 273.875 105.128 273.712 105.547 273.712C106.211 273.712 110.239 275.61 110.239 276.344C110.239 276.588 110.158 276.914 110.076 277.17C108.272 282.689 102.59 292.644 92.39 292.644L92.3783 292.633ZM22.1921 261.766C15.6951 261.766 10.8398 266.866 10.8398 274.446C10.8398 280.861 14.4609 285.065 19.3977 285.065C27.2919 285.065 31.4951 273.875 31.4951 265.97C29.6788 264.072 26.0693 261.766 22.1921 261.766ZM72.6312 261.766C66.1342 261.766 61.2789 266.866 61.2789 274.446C61.2789 280.861 64.9 285.065 69.7552 285.065C78.3131 285.065 81.9342 272.967 81.9342 265.97C80.1179 264.072 76.4968 261.766 72.6312 261.766Z" fill="#FFDDB4"/>
<path fill-rule="evenodd" clip-rule="evenodd" d="M723.159 120.66C731.751 131.069 760.068 133.899 760.068 133.899C781.888 176.094 770.617 202.734 770.617 202.734C711.271 196.261 702.072 136.553 702.072 136.553C718 187.586 765.342 192.151 765.342 192.151C762.106 141.304 749.531 136.553 749.531 136.553C721.482 132.397 709.99 115.374 709.99 115.374C799.213 132.851 802.264 49.1932 802.264 49.1932C744.035 32.8343 702.084 86.2541 702.084 86.2541C748.029 18.4897 815.444 38.5978 815.444 38.5978C815.129 143.376 723.17 120.672 723.17 120.672L723.159 120.66ZM722.693 19.7122C722.693 19.7122 698.102 61.4886 696.437 81.0029C696.437 81.0029 693.305 40.0066 722.693 19.7122ZM661.437 19.7122C690.511 40.0066 687.402 81.0029 687.402 81.0029C685.748 61.4886 661.437 19.7122 661.437 19.7122Z" fill="#FFDDB4"/>
</svg>
